<svg xmlns="http://www.w3.org/2000/svg" width="66.061" height="66.057" viewBox="0 0 66.061 66.057"><defs><style>.a{fill:#f60;}</style></defs><path class="a" d="M66.957,46.038H51L48.24,18.4a1.117,1.117,0,0,0-1.1-.991H40.534v-2.2a13.211,13.211,0,1,0-26.423,0v2.2H7.505a1.117,1.117,0,0,0-1.1.991L2,62.442a1.141,1.141,0,0,0,.286.848,1.1,1.1,0,0,0,.815.363H32.937a5.524,5.524,0,0,0,5.395,4.4H60.351a5.5,5.5,0,0,0,5.5-5.5V52.644h1.1a1.1,1.1,0,0,0,1.1-1.1v-4.4A1.1,1.1,0,0,0,66.957,46.038ZM16.313,15.211a11.01,11.01,0,1,1,22.019,0v2.2H16.313Zm16.514,46.24H4.312L8.5,19.615h5.615v4.4h-1.1v2.2h4.4v-2.2h-1.1v-4.4H38.332v4.4h-1.1v2.2h4.4v-2.2h-1.1v-4.4h5.615l2.642,26.423H31.726a1.1,1.1,0,0,0-1.1,1.1v4.4a1.1,1.1,0,0,0,1.1,1.1h1.1Zm30.827,1.1a3.313,3.313,0,0,1-3.3,3.3H38.332a3.313,3.313,0,0,1-3.3-3.3V52.644H63.654Zm2.2-12.111H32.827v-2.2H65.856Z" transform="translate(-1.997 -2)"></path><path class="a" d="M35.817,38.111v-1.1a8.808,8.808,0,0,0-7.707-8.731V26h-2.2v2.279A8.808,8.808,0,0,0,18.2,37.01v1.1H16v2.2H38.019v-2.2Zm-2.2,0H20.4v-1.1a6.606,6.606,0,0,1,13.211,0Z" transform="translate(-0.583 0.423)"></path><path class="a" d="M50.2,40.01h2.2a4.984,4.984,0,0,0-1.342-3.44,2.908,2.908,0,0,1,0-4.129A4.984,4.984,0,0,0,52.4,29H50.2a2.844,2.844,0,0,1-.86,2.064,5.081,5.081,0,0,0,0,6.881,2.844,2.844,0,0,1,.86,2.064Z" transform="translate(2.647 0.726)"></path><path class="a" d="M39.2,40.01h2.2a4.984,4.984,0,0,0-1.342-3.44,2.908,2.908,0,0,1,0-4.129A4.984,4.984,0,0,0,41.4,29H39.2a2.844,2.844,0,0,1-.86,2.064,5.081,5.081,0,0,0,0,6.881A2.844,2.844,0,0,1,39.2,40.01Z" transform="translate(1.537 0.726)"></path></svg>