<svg xmlns="http://www.w3.org/2000/svg" width="60.595" height="59.924" viewBox="0 0 60.595 59.924"><defs><style>.a{fill:#f60;}</style></defs><path class="a" d="M59.412,3.474H44.2a1.184,1.184,0,0,0-1.184,1.184V5.833L33.136,3.116a7.732,7.732,0,0,0-5.647.6L20.311,7.466a5.884,5.884,0,0,0-3.17,5.232V14.79a3.35,3.35,0,0,0,.582,1.89c0,.011-.007.022-.009.034l-1.919,8.434a1.184,1.184,0,0,0,1.154,1.446,1.214,1.214,0,0,0,.128-.008c-.169,1.226-.369,2.447-.6,3.648a72.212,72.212,0,0,0-1.3,13.632v1.505a10.985,10.985,0,0,0-1.691,1.5L12.167,48.31l-1.034-.875a1.184,1.184,0,0,0-1.6.069L.344,56.757A1.184,1.184,0,0,0,0,57.591v3.986A1.184,1.184,0,0,0,1.184,62.76H18.418a1.184,1.184,0,0,0,.88-.392l3.281-3.645a1.181,1.181,0,0,0,.11-1.44h12.9a6.326,6.326,0,0,0,3.685-1.175l8.473-6.014a4,4,0,0,0-4.62-6.532l-.705.5v-.192a72.2,72.2,0,0,0-1.3-13.631c-.234-1.217-.435-2.447-.6-3.677a1.183,1.183,0,0,0,1.07-1.392L40.312,18.16h2.7v1.111A1.184,1.184,0,0,0,44.2,20.455h4.655a1.184,1.184,0,0,0,0-2.367H45.379V5.841H58.228v13.43a1.184,1.184,0,1,0,2.367,0V4.658a1.184,1.184,0,0,0-1.184-1.184ZM17.891,60.393H2.367V58.078l8.071-8.131L20,58.046Zm26.6-14.9a1.633,1.633,0,0,1,1.886,2.668L37.9,54.178a3.972,3.972,0,0,1-2.314.738H19.969L13.975,49.84l1.255-1.369a8.738,8.738,0,0,1,6.387-2.809h8.13A4.226,4.226,0,0,1,33.8,48.7H25.329a1.184,1.184,0,0,0,0,2.367h9.822a3.09,3.09,0,0,0,1.747-.216l5.022-3.54,0,0ZM36.18,48.46A6.6,6.6,0,0,0,29.748,43.3h-8.13a11.068,11.068,0,0,0-4.073.779v-.208A69.832,69.832,0,0,1,18.8,30.682c.323-1.68.589-3.4.793-5.112a28.786,28.786,0,0,1,9.188-1.416,31.594,31.594,0,0,1,9.231,1.473c.2,1.685.465,3.382.786,5.054a69.83,69.83,0,0,1,1.256,13.184v1.861Zm2.685-25.041a29.488,29.488,0,0,0-10.093-1.631A30.054,30.054,0,0,0,18.619,23.4l1.193-5.243H37.906ZM27.671,15.793a1.518,1.518,0,0,1,0-3.036H34.7a1.184,1.184,0,0,0,0-2.367H27.671a3.885,3.885,0,0,0-3.576,5.4H20.511a1,1,0,0,1-1-1V12.7a3.524,3.524,0,0,1,1.9-3.134l7.177-3.748A5.416,5.416,0,0,1,32.508,5.4l10.5,2.89v7.505H27.671Z" transform="translate(0 -2.836)"></path><path class="a" d="M187.268,228.713h-.423a6.919,6.919,0,0,0-5.616-5.616v-.859a1.183,1.183,0,0,0-2.367,0v.859a6.919,6.919,0,0,0-5.616,5.616h-.423a1.184,1.184,0,0,0,0,2.367h14.446a1.184,1.184,0,0,0,0-2.367Zm-11.6,0a4.537,4.537,0,0,1,8.759,0Z" transform="translate(-151.325 -195.228)"></path><path class="a" d="M450,132.453a1.183,1.183,0,1,0-.64,1.546A1.2,1.2,0,0,0,450,132.453Z" transform="translate(-394.738 -116.471)"></path></svg>